<?xml version="1.0" encoding="utf-8"?>
<!-- Generator: Adobe Illustrator 21.0.2, SVG Export Plug-In . SVG Version: 6.00 Build 0)  -->
<svg version="1.1" id="Layer_1" xmlns="http://www.w3.org/2000/svg" xmlns:xlink="http://www.w3.org/1999/xlink" x="0px" y="0px"
	 viewBox="0 0 90.5 59.5" style="enable-background:new 0 0 90.5 59.5;" xml:space="preserve">
<style type="text/css">
	.st0{fill:#FFFFFF;}
</style>
<g>
	<path class="st0" d="M12.7,54.8h65c2.8,0,5.1-2.3,5.1-5.1V6.1c0-2.8-2.3-5.1-5.1-5.1h-65C9.9,1,7.6,3.3,7.6,6.1v43.6
		C7.6,52.5,9.9,54.8,12.7,54.8z M48.5,52.7c0,0.3-0.3,0.6-0.6,0.6h-5.3c-0.3,0-0.6-0.3-0.6-0.6v0c0-0.3,0.3-0.6,0.6-0.6h5.3
		C48.2,52,48.5,52.3,48.5,52.7L48.5,52.7z M11.2,6.1c0-0.2,0-0.4,0.1-0.6c0,0,0,0,0,0c0,0,0,0,0,0c0.2-0.5,0.8-0.9,1.4-0.9h65
		c0.6,0,1,0.3,1.3,0.7c0.1,0.2,0.2,0.5,0.2,0.8v0c0,0,0,0,0,0v43.6c0,0.4-0.1,0.7-0.3,0.9c-0.3,0.3-0.7,0.6-1.2,0.6h-65
		c-0.3,0-0.6-0.1-0.8-0.3c-0.4-0.3-0.6-0.7-0.7-1.2c0,0,0,0,0,0L11.2,6.1L11.2,6.1z"/>
	<rect x="0.8" y="55.6" class="st0" width="89" height="2.9"/>
</g>
</svg>
