<?xml version="1.0" encoding="utf-8"?>
<!-- Generator: Adobe Illustrator 21.0.2, SVG Export Plug-In . SVG Version: 6.00 Build 0)  -->
<svg version="1.1" id="Layer_1" xmlns="http://www.w3.org/2000/svg" xmlns:xlink="http://www.w3.org/1999/xlink" x="0px" y="0px"
	 viewBox="0 0 69.5 89.5" style="enable-background:new 0 0 69.5 89.5;" xml:space="preserve">
<style type="text/css">
	.st0{fill:#FFFFFF;}
</style>
<path class="st0" d="M60.9,1.9H8.6C4.9,1.9,2,4.9,2,8.5V81c0,3.7,3,6.6,6.6,6.6h52.3c3.7,0,6.6-3,6.6-6.6V8.5
	C67.5,4.9,64.5,1.9,60.9,1.9z M29,7h11.4C40.8,7,41,7.3,41,7.6c0,0.3-0.3,0.6-0.6,0.6H29c-0.3,0-0.6-0.3-0.6-0.6
	C28.5,7.3,28.7,7,29,7z M34.7,82.7c-2.1,0-3.8-1.7-3.8-3.8c0-2.1,1.7-3.8,3.8-3.8c2.1,0,3.8,1.7,3.8,3.8
	C38.6,81,36.9,82.7,34.7,82.7z M64.6,70.8H4.9V14.9h59.7V70.8z"/>
</svg>
