<?xml version="1.0" encoding="utf-8"?>
<!-- Generator: Adobe Illustrator 21.0.2, SVG Export Plug-In . SVG Version: 6.00 Build 0)  -->
<svg version="1.1" id="Layer_1" xmlns="http://www.w3.org/2000/svg" xmlns:xlink="http://www.w3.org/1999/xlink" x="0px" y="0px"
	 viewBox="0 0 75.2 93.5" style="enable-background:new 0 0 75.2 93.5;" xml:space="preserve">
<g>
	<path d="M11.5,1.9c-5.5,0-10,4.5-10,10v70.2c0,5.5,4.5,10,10,10h52.4c5.5,0,10-4.5,10-10V11.9c0-5.5-4.5-10-10-10
		C63.9,1.9,11.5,1.9,11.5,1.9z M69.9,11.9v70.2c0,3.3-2.7,6-6,6H11.5c-3.3,0-6-2.7-6-6V11.9c0-3.3,2.7-6,6-6h52.4
		C67.2,5.9,69.9,8.6,69.9,11.9z"/>
	<path d="M16,37.6h21.5c1.1,0,2-0.9,2-2s-0.9-2-2-2H16c-1.1,0-2,0.9-2,2S15,37.6,16,37.6z"/>
	<path d="M54.8,48.8H15.5c-1.1,0-2,0.9-2,2s0.9,2,2,2h39.3c1.1,0,2-0.9,2-2S55.9,48.8,54.8,48.8z"/>
	<path d="M54.8,64H15.5c-1.1,0-2,0.9-2,2s0.9,2,2,2h39.3c1.1,0,2-0.9,2-2S55.9,64,54.8,64z"/>
</g>
</svg>
