<?xml version="1.0" encoding="utf-8"?>
<!-- Generator: Adobe Illustrator 21.0.2, SVG Export Plug-In . SVG Version: 6.00 Build 0)  -->
<svg version="1.1" id="Layer_1" xmlns="http://www.w3.org/2000/svg" xmlns:xlink="http://www.w3.org/1999/xlink" x="0px" y="0px"
	 viewBox="0 0 36.9 36.9" style="enable-background:new 0 0 36.9 36.9;" xml:space="preserve">
<style type="text/css">
	.st0{fill:#CFCFCF;}
</style>
<g>
	<g>
		<path class="st0" d="M33.7,0.4H3.1C1.6,0.4,0.4,1.6,0.4,3v30.8c0,1.4,1.2,2.6,2.7,2.6h30.7c1.5,0,2.7-1.2,2.7-2.6V3
			C36.4,1.6,35.2,0.4,33.7,0.4z M11.1,31.1H5.7V13.9H11L11.1,31.1L11.1,31.1z M8.4,11.5c-1.7,0-3.1-1.4-3.1-3.1s1.4-3,3.1-3
			s3.1,1.4,3.1,3.1S10.1,11.5,8.4,11.5z M31.1,31.1h-5.3v-8.4c0-2,0-4.6-2.8-4.6s-3.2,2.2-3.2,4.4V31h-5.4V13.9h5.1v2.3h0.1
			c0.7-1.4,2.5-2.8,5.1-2.8c5.4,0,6.4,3.6,6.4,8.2V31.1z"/>
	</g>
</g>
</svg>
