<?xml version="1.0" encoding="utf-8"?>
<!-- Generator: Adobe Illustrator 21.0.2, SVG Export Plug-In . SVG Version: 6.00 Build 0)  -->
<svg version="1.1" id="Layer_1" xmlns="http://www.w3.org/2000/svg" xmlns:xlink="http://www.w3.org/1999/xlink" x="0px" y="0px"
	 viewBox="0 0 91.8 62.2" style="enable-background:new 0 0 91.8 62.2;" xml:space="preserve">
<style type="text/css">
	.st0{fill:#CFCFCF;}
</style>
<path class="st0" d="M80,2.5H11.5C6.2,2.5,2,6.7,2,12v38.5c0,5.2,4.3,9.5,9.5,9.5H80c5.2,0,9.5-4.3,9.5-9.5V12
	C89.5,6.7,85.3,2.5,80,2.5z M64.8,27.8l19.7-13.8v34.7L64.8,27.8z M11.5,7.5H80c1.3,0,2.4,0.5,3.2,1.4L51.1,31.3
	c-0.7,0.5-3.1,1.9-5.2,1.9c-3,0-5-1.6-5-1.6L8.1,9C8.9,8.1,10.1,7.5,11.5,7.5z M7,48.8V14.3l19.7,13.6L7,48.8z M11.5,55
	c-1,0-1.9-0.3-2.6-0.9l22.1-23.4l6.9,4.7c0.7,0.5,3.7,2.7,8.1,2.7c4.2,0,7.8-2.6,8.1-2.9l6.7-4.6l22.1,23.4C82,54.7,81.1,55,80,55
	H11.5z"/>
</svg>
