<svg id="Layer_1" data-name="Layer 1" xmlns="http://www.w3.org/2000/svg" viewBox="0 0 36.1 36"><title>icon-linkedin-black</title><path d="M33.7.4H3.1A2.67,2.67,0,0,0,.4,3V33.8a2.67,2.67,0,0,0,2.7,2.6H33.8a2.67,2.67,0,0,0,2.7-2.6V3A2.83,2.83,0,0,0,33.7.4ZM11.1,31.1H5.7V13.9H11l.1,17.2ZM8.4,11.5A3.12,3.12,0,0,1,5.3,8.4a3,3,0,0,1,3.1-3,3.12,3.12,0,0,1,3.1,3.1A3,3,0,0,1,8.4,11.5ZM31.1,31.1H25.8V22.7c0-2,0-4.6-2.8-4.6s-3.2,2.2-3.2,4.4V31H14.4V13.9h5.1v2.3h.1a5.6,5.6,0,0,1,5.1-2.8c5.4,0,6.4,3.6,6.4,8.2Z" transform="translate(-0.4 -0.4)"/></svg>