<?xml version="1.0" encoding="utf-8"?>
<!-- Generator: Adobe Illustrator 21.0.2, SVG Export Plug-In . SVG Version: 6.00 Build 0)  -->
<svg version="1.1" id="Layer_1" xmlns="http://www.w3.org/2000/svg" xmlns:xlink="http://www.w3.org/1999/xlink" x="0px" y="0px"
	 viewBox="0 0 47 89.2" style="enable-background:new 0 0 47 89.2;" xml:space="preserve">
<style type="text/css">
	.st0{fill:#FFFFFF;}
</style>
<path class="st0" d="M38.6,1.9H8.4c-3.7,0-6.6,3-6.6,6.6V81c0,3.7,3,6.6,6.6,6.6h30.3c3.7,0,6.6-3,6.6-6.6V8.5
	C45.3,4.9,42.3,1.9,38.6,1.9z M17.8,7h11.4c0.3,0,0.6,0.3,0.6,0.6c0,0.3-0.3,0.6-0.6,0.6H17.8c-0.3,0-0.6-0.3-0.6-0.6
	C17.2,7.3,17.5,7,17.8,7z M23.5,82.7c-2.1,0-3.8-1.7-3.8-3.8c0-2.1,1.7-3.8,3.8-3.8c2.1,0,3.8,1.7,3.8,3.8
	C27.3,81,25.6,82.7,23.5,82.7z M42.4,70.8H4.6V14.9h37.7V70.8z"/>
</svg>
