<?xml version="1.0" encoding="utf-8"?>
<!-- Generator: Adobe Illustrator 21.0.2, SVG Export Plug-In . SVG Version: 6.00 Build 0)  -->
<svg version="1.1" id="Layer_1" xmlns="http://www.w3.org/2000/svg" xmlns:xlink="http://www.w3.org/1999/xlink" x="0px" y="0px"
	 viewBox="0 0 50.4 87.6" style="enable-background:new 0 0 50.4 87.6;" xml:space="preserve">
<style type="text/css">
	.st0{fill:#FFFFFF;}
</style>
<path class="st0" d="M26.2.75A25.23,25.23,0,0,0,1,25.95v37.2a25.2,25.2,0,0,0,50.4,0h0V25.95A25.23,25.23,0,0,0,26.2.75ZM47.8,26V32A69.79,69.79,0,0,1,
	28,35.31V4.44A21.62,21.62,0,0,1,47.8,26ZM24.4,4.44V35.31A69.73,69.73,0,0,1,4.6,32V25.95A21.62,21.62,0,0,1,24.4,4.44Zm1.8,80.31A21.63,21.63,0,0,1,
	4.6,63.15V35.82a74.63,74.63,0,0,0,21.6,3.12,74.59,74.59,0,0,0,21.6-3.12V63.15A21.62,21.62,0,0,1,26.2,84.75Z" transform="translate(-1 -0.75)"/>
</svg>