<?xml version="1.0" encoding="utf-8"?>
<!-- Generator: Adobe Illustrator 21.0.2, SVG Export Plug-In . SVG Version: 6.00 Build 0)  -->
<svg version="1.1" id="Layer_1" xmlns="http://www.w3.org/2000/svg" xmlns:xlink="http://www.w3.org/1999/xlink" x="0px" y="0px"
	 viewBox="0 0 88 44" style="enable-background:new 0 0 88 44;" xml:space="preserve">
<style type="text/css">
	.st0{fill:#FFFFFF;}
</style>
<path class="st0" d="M2.75.92a2,2,0,0,0-2,2v40a2,2,0,0,0,2,2h84a2,2,0,0,0,2-2v-40a2,2,0,0,0-1.81-2H2.75Zm2,4h10v10h-10Zm14,
	0h10v10h-10Zm14,0h10v10h-10Zm14,0h10v10h-10Zm14,0h10v10h-10Zm14,0h10v10h-10Zm-70,14h10v9h-10Zm14,0h10v9h-10Zm14,
	0h10v9h-10Zm14,0h10v9h-10Zm14,0h10v9h-10Zm14,0h10v9h-10Zm-70,13h10v9h-10Zm14,0h52v9h-52Zm56,0h10v9h-10Z" transform="translate(-0.75 -0.92)"/>
</svg>
