<svg id="Capa_1" data-name="Capa 1" xmlns="http://www.w3.org/2000/svg" viewBox="0 0 612 497.2"><title>icon-twitter</title><path d="M619,68.3a252.46,252.46,0,0,1-72.1,19.8,126.26,126.26,0,0,0,55.2-69.4,253.59,253.59,0,0,1-79.8,30.5A125.58,125.58,0,0,0,305.1,135a123,123,0,0,0,3.3,28.6C204.1,158.4,111.6,108.4,49.6,32.4A125.7,125.7,0,0,0,88.4,200a124.85,124.85,0,0,1-56.9-15.8v1.6A125.64,125.64,0,0,0,132.2,308.9a128.35,128.35,0,0,1-33.1,4.4A122.64,122.64,0,0,1,75.5,311a125.63,125.63,0,0,0,117.3,87.2A251.54,251.54,0,0,1,36.9,451.9,268.27,268.27,0,0,1,7,450.2a354.69,354.69,0,0,0,192.4,56.5c230.9,0,357.2-191.3,357.2-357.2l-.4-16.3A253.22,253.22,0,0,0,619,68.3Z" transform="translate(-7 -9.5)"/></svg>