<?xml version="1.0" encoding="utf-8"?>
<!-- Generator: Adobe Illustrator 21.0.2, SVG Export Plug-In . SVG Version: 6.00 Build 0)  -->
<svg version="1.1" id="Layer_1" xmlns="http://www.w3.org/2000/svg" xmlns:xlink="http://www.w3.org/1999/xlink" x="0px" y="0px"
	 viewBox="0 0 75.1 94.8" style="enable-background:new 0 0 75.1 94.8;" xml:space="preserve">
<g>
	<path d="M11.2,2.2c-5.5,0-10,4.5-10,10v70.2c0,5.5,4.5,10,10,10h52.4c5.5,0,10-4.5,10-10V12.1c0-5.5-4.5-10-10-10
		C63.7,2.2,11.2,2.2,11.2,2.2z M69.7,12.1v70.2c0,3.3-2.7,6-6,6H11.2c-3.3,0-6-2.7-6-6V12.1c0-3.3,2.7-6,6-6h52.4
		C66.9,6.2,69.7,8.9,69.7,12.1z"/>
	<path d="M15.8,37.8h21.5c1.1,0,2-0.9,2-2s-0.9-2-2-2H15.8c-1.1,0-2,0.9-2,2S14.8,37.8,15.8,37.8z"/>
	<path d="M54.5,49H15.2c-1.1,0-2,0.9-2,2s0.9,2,2,2h39.3c1.1,0,2-0.9,2-2S55.7,49,54.5,49z"/>
	<path d="M54.5,64.2H15.2c-1.1,0-2,0.9-2,2s0.9,2,2,2h39.3c1.1,0,2-0.9,2-2S55.7,64.2,54.5,64.2z"/>
</g>
</svg>
