<?xml version="1.0" encoding="utf-8"?>
<!-- Generator: Adobe Illustrator 21.0.2, SVG Export Plug-In . SVG Version: 6.00 Build 0)  -->
<svg version="1.1" id="Layer_1" xmlns="http://www.w3.org/2000/svg" xmlns:xlink="http://www.w3.org/1999/xlink" x="0px" y="0px"
	 viewBox="0 0 994.5 1004.9" style="enable-background:new 0 0 994.5 1004.9;" xml:space="preserve">
<g>
	<path d="M973.3,322.3L516,17.4c-11-7.3-25.3-7.3-36.2,0L22.4,322.3c-9.1,6-14.5,16.3-14.5,27.2v304.9c0,10.9,5.5,21.1,14.5,27.2
		l457.3,304.9c5.5,3.7,11.8,5.5,18.1,5.5c6.3,0,12.6-1.8,18.1-5.5l457.3-304.9c9.1-6,14.5-16.3,14.5-27.2V349.5
		C987.9,338.6,982.4,328.3,973.3,322.3L973.3,322.3z M497.9,615.1L328.1,501.9l169.8-113.2l169.7,113.2L497.9,615.1z M530.5,332
		V105.6l365.8,243.9L726.5,462.7L530.5,332L530.5,332z M465.2,332l-196,130.7L99.4,349.5l365.8-243.9V332z M210.3,501.9L73.2,593.3
		V410.5L210.3,501.9z M269.2,541.2l196,130.7v226.4L99.4,654.4L269.2,541.2z M530.5,671.8l196-130.7l169.8,113.2L530.5,898.2V671.8z
		 M785.4,501.9l137.1-91.4v182.8L785.4,501.9z"/>
</g>
</svg>
