<svg id="Layer_1" data-name="Layer 1" xmlns="http://www.w3.org/2000/svg" viewBox="0 0 318 173.8"><defs><style>.cls-1{isolation:isolate;}.cls-2{fill:#fff;}</style></defs><title>logo-tcl-stacked-black</title><path d="M65,50.4a10,10,0,0,1,10,10v55a10,10,0,0,1-10,10H10a10,10,0,0,1-10-10v-55a10,10,0,0,1,10-10" transform="translate(0 -6.72)"/><g class="cls-1"><path class="cls-2" d="M49.28,93.61A14.83,14.83,0,0,1,48.06,98a11.21,11.21,0,0,1-2.38,3.4,10.36,10.36,0,0,1-3.47,2.2,12.15,12.15,0,0,1-4.46.79,11.63,11.63,0,0,1-3.83-.6,10.55,10.55,0,0,1-3.07-1.65,11,11,0,0,1-2.32-2.48,15.09,15.09,0,0,1-1.62-3.12,18.74,18.74,0,0,1-1-3.54,24,24,0,0,1-.34-3.75V84.45a24,24,0,0,1,.34-3.75,18.74,18.74,0,0,1,1-3.54A15.38,15.38,0,0,1,28.53,74a10.86,10.86,0,0,1,2.32-2.5,10.58,10.58,0,0,1,3.06-1.65,11.61,11.61,0,0,1,3.84-.6,12.51,12.51,0,0,1,4.57.79,10,10,0,0,1,3.47,2.23,11,11,0,0,1,2.33,3.46,15.54,15.54,0,0,1,1.16,4.45H44.94a12.77,12.77,0,0,0-.73-2.88A7.94,7.94,0,0,0,42.83,75a6.12,6.12,0,0,0-2.12-1.58,7.07,7.07,0,0,0-3-.57,6.92,6.92,0,0,0-2.73.5,6.29,6.29,0,0,0-2,1.37,7.83,7.83,0,0,0-1.43,2,13.2,13.2,0,0,0-.93,2.44,17.46,17.46,0,0,0-.5,2.64A23.27,23.27,0,0,0,30,84.4v4.8a23.27,23.27,0,0,0,.15,2.61,17.8,17.8,0,0,0,.5,2.65,13.65,13.65,0,0,0,.91,2.45,7.66,7.66,0,0,0,1.43,2,6.36,6.36,0,0,0,2,1.38,6.9,6.9,0,0,0,2.74.5,7.47,7.47,0,0,0,3-.54,5.94,5.94,0,0,0,2.12-1.51,7.5,7.5,0,0,0,1.38-2.3,12.57,12.57,0,0,0,.73-2.87Z" transform="translate(0 -6.72)"/></g><path d="M146,50.4a10,10,0,0,1,10,10v55a10,10,0,0,1-10,10H91a10,10,0,0,1-10-10v-55a10,10,0,0,1,10-10" transform="translate(0 -6.72)"/><g class="cls-1"><path class="cls-2" d="M130.37,88.79a25.88,25.88,0,0,1-.32,3.69,20.38,20.38,0,0,1-.9,3.6,15.85,15.85,0,0,1-1.56,3.23,11.61,11.61,0,0,1-2.26,2.62,10.07,10.07,0,0,1-3,1.77,11.57,11.57,0,0,1-7.62,0,10.07,10.07,0,0,1-3-1.77,11.75,11.75,0,0,1-2.27-2.64,16.23,16.23,0,0,1-1.58-3.25,20.47,20.47,0,0,1-.93-3.59,24.58,24.58,0,0,1-.33-3.68V84.9a25.88,25.88,0,0,1,.32-3.69,19.74,19.74,0,0,1,.91-3.6,16.62,16.62,0,0,1,1.57-3.25,11.73,11.73,0,0,1,2.26-2.65,9.94,9.94,0,0,1,3-1.78,11.61,11.61,0,0,1,7.63,0,10,10,0,0,1,3,1.77,11.5,11.5,0,0,1,2.26,2.64,16.62,16.62,0,0,1,1.57,3.25,19.7,19.7,0,0,1,.91,3.61,26.14,26.14,0,0,1,.32,3.7Zm-4.29-3.94q0-1.22-.16-2.54a17.81,17.81,0,0,0-.48-2.62,14,14,0,0,0-.9-2.48,8.15,8.15,0,0,0-1.41-2.09,6.1,6.1,0,0,0-4.66-2,6.17,6.17,0,0,0-2.65.54,6.45,6.45,0,0,0-2,1.44,8.15,8.15,0,0,0-1.41,2.09,14,14,0,0,0-.9,2.48,18.93,18.93,0,0,0-.49,2.63q-.15,1.32-.18,2.52v3.94q0,1.2.18,2.53a17.84,17.84,0,0,0,.5,2.64,15.11,15.11,0,0,0,.91,2.5,8.08,8.08,0,0,0,1.41,2.1,6.45,6.45,0,0,0,2,1.44,6.23,6.23,0,0,0,2.67.54,6.12,6.12,0,0,0,4.68-2,8.08,8.08,0,0,0,1.38-2.09,14.66,14.66,0,0,0,.89-2.48,16.8,16.8,0,0,0,.47-2.64q.13-1.34.15-2.55Z" transform="translate(0 -6.72)"/></g><path d="M227,50.4a10,10,0,0,1,10,10v55a10,10,0,0,1-10,10H172a10,10,0,0,1-10-10v-55a10,10,0,0,1,10-10" transform="translate(0 -6.72)"/><g class="cls-1"><path class="cls-2" d="M188.73,103.88V69.75h7.9A17.1,17.1,0,0,1,203,71a13.37,13.37,0,0,1,4.73,3.23,14,14,0,0,1,3,5,19.59,19.59,0,0,1,1,6.41v2.51a19.59,19.59,0,0,1-1,6.41,14,14,0,0,1-3,5A13.37,13.37,0,0,1,203,102.7a16.79,16.79,0,0,1-6.36,1.18Zm4.41-30.56v27h3.49a11.36,11.36,0,0,0,4.78-1,9.33,9.33,0,0,0,3.34-2.59,10.91,10.91,0,0,0,2-3.87,17.89,17.89,0,0,0,.67-4.83V85.53a17.45,17.45,0,0,0-.68-4.82,11.05,11.05,0,0,0-2-3.84,9.16,9.16,0,0,0-3.33-2.57,11.73,11.73,0,0,0-4.78-1Z" transform="translate(0 -6.72)"/></g><path d="M308,50.4a10,10,0,0,1,10,10v55a10,10,0,0,1-10,10H253a10,10,0,0,1-10-10v-55a10,10,0,0,1,10-10" transform="translate(0 -6.72)"/><g class="cls-1"><path class="cls-2" d="M289,88.11H274.7V100.2h16.62v3.68h-21V69.75h20.74v3.7H274.7v11H289Z" transform="translate(0 -6.72)"/></g><g class="cls-1"><path d="M122,38.42q-3.17-2.38-3.17-7.94V24.24H115a1.31,1.31,0,0,1-1.3-1.3V17.14a1.31,1.31,0,0,1,1.3-1.3h3.79V8a1.31,1.31,0,0,1,1.3-1.3h8.4a1.31,1.31,0,0,1,1.3,1.3v7.82h6a1.31,1.31,0,0,1,1.3,1.3v5.81a1.31,1.31,0,0,1-1.3,1.3h-6v5.28q0,2.4,2.06,2.4h4.37a1.31,1.31,0,0,1,1.3,1.3V39.5a1.31,1.31,0,0,1-1.3,1.3h-5.42Q125.16,40.8,122,38.42Z" transform="translate(0 -6.72)"/><path d="M141.29,40.42a1.24,1.24,0,0,1-.38-.91V8a1.31,1.31,0,0,1,1.3-1.3h9.36a1.31,1.31,0,0,1,1.3,1.3V18.34a9.08,9.08,0,0,1,3.19-2.18,10.55,10.55,0,0,1,4.1-.79,9.68,9.68,0,0,1,4.7,1.18,8.79,8.79,0,0,1,3.5,3.65,12.58,12.58,0,0,1,1.34,6.07V39.5a1.31,1.31,0,0,1-1.3,1.3H159a1.31,1.31,0,0,1-1.3-1.3V26.59a2.8,2.8,0,0,0-.62-2,2.3,2.3,0,0,0-1.78-.67,2.38,2.38,0,0,0-1.8.67,2.73,2.73,0,0,0-.65,2V39.5a1.31,1.31,0,0,1-1.3,1.3H142.2A1.25,1.25,0,0,1,141.29,40.42Z" transform="translate(0 -6.72)"/><path d="M176.57,38.09Q173,34.9,173,28.37V28q.1-6.1,3.77-9.38t9.91-3.29a15.25,15.25,0,0,1,7.61,1.75,11.09,11.09,0,0,1,4.58,4.7,14.46,14.46,0,0,1,1.49,6.6v1.44a1.31,1.31,0,0,1-1.3,1.3h-14.3v.24a4.4,4.4,0,0,0,.43,2.21,1.55,1.55,0,0,0,1.44.72,1.06,1.06,0,0,0,.62-.17,7,7,0,0,0,.77-.7,2.55,2.55,0,0,1,.72-.55,2.39,2.39,0,0,1,.86-.12h9.07a1.12,1.12,0,0,1,.74.26.87.87,0,0,1,.31.7,5.29,5.29,0,0,1-1.49,3.14,11.78,11.78,0,0,1-4.44,3.1,17.54,17.54,0,0,1-7.08,1.3Q180.17,41.28,176.57,38.09Zm12-12.94v0q0-3-1.92-3t-1.92,3v0Z" transform="translate(0 -6.72)"/></g><g class="cls-1"><path d="M122.75,169.58a1.24,1.24,0,0,1-.38-.91V137.18a1.31,1.31,0,0,1,1.3-1.3h8.59a1.31,1.31,0,0,1,1.3,1.3v31.49a1.31,1.31,0,0,1-1.3,1.3h-8.59A1.25,1.25,0,0,1,122.75,169.58Z" transform="translate(0 -6.72)"/><path d="M137.2,159.74c0-.48,0-1.23,0-2.26s0-1.78,0-2.26a10.22,10.22,0,0,1,4-8q3.65-2.74,9.94-2.74t9.94,2.74a10.23,10.23,0,0,1,4,8q.1,1.44.1,2.26t-.1,2.26q-.72,10.7-13.92,10.7T137.2,159.74Zm15.6,2.33a6.6,6.6,0,0,0,.48-2.57q0-.48,0-2t0-2a7.12,7.12,0,0,0-.53-2.54,2.21,2.21,0,0,0-3.26,0,7.12,7.12,0,0,0-.53,2.54l0,2,0,2a6.57,6.57,0,0,0,.48,2.57q.38.7,1.68.7T152.8,162.06Z" transform="translate(0 -6.72)"/><path d="M174.57,178.91a12.17,12.17,0,0,1-4.63-3.67,6.51,6.51,0,0,1-1.44-3.41,1.12,1.12,0,0,1,.38-.84,1.29,1.29,0,0,1,.91-.36h9.36a1.24,1.24,0,0,1,.82.24,2.19,2.19,0,0,1,.53.72,2.23,2.23,0,0,0,.77.94,2.43,2.43,0,0,0,1.25.26q2.06,0,2.06-2.83v-3.17a9.34,9.34,0,0,1-6.38,2.06q-4.75,0-7.3-2.52T168,158l0-1.25q0-6.14,2.66-9.19a9.5,9.5,0,0,1,7.56-3,9.2,9.2,0,0,1,4.08.89,8.72,8.72,0,0,1,3,2.38V146.3a1.31,1.31,0,0,1,1.3-1.3H195a1.31,1.31,0,0,1,1.3,1.3l0,22.85q0,5.76-3.74,8.57t-9.84,2.81A18.18,18.18,0,0,1,174.57,178.91Zm9.36-19a3,3,0,0,0,.65-1.8,9.84,9.84,0,0,0,0-1.3,5.93,5.93,0,0,0-.5-2.81,2,2,0,0,0-1.94-.89,2.09,2.09,0,0,0-1.78.7,3.88,3.88,0,0,0-.62,2.09l0,.91a6,6,0,0,0,.5,2.78,2,2,0,0,0,1.94.91A2.28,2.28,0,0,0,183.93,159.9Z" transform="translate(0 -6.72)"/></g></svg>