<svg id="Layer_1" data-name="Layer 1" xmlns="http://www.w3.org/2000/svg" viewBox="0 0 77 76"><defs><style>.cls-1{fill:#fff;}</style></defs><title>logo-portfolio-black</title><rect width="77" height="76"/><path class="cls-1" d="M5.19,54.7a1.24,1.24,0,0,1-.38-.91v-31a1.31,1.31,0,0,1,1.3-1.3H19.93A20.27,20.27,0,0,1,28,23a13.22,13.22,0,0,1,5.66,4.51A12.83,12.83,0,0,1,36,34.68q.1,2.69.1,3.65t-.1,3.5q-.29,6.62-4.49,9.94t-11.3,3.31H6.1A1.24,1.24,0,0,1,5.19,54.7Zm14.74-9a3.77,3.77,0,0,0,2.71-1,4.13,4.13,0,0,0,1.13-2.9q.1-1.39.1-3.6t-.1-3.55a3.84,3.84,0,0,0-1.22-2.88,4.25,4.25,0,0,0-2.86-1H16.81V45.72Z"/><path class="cls-1" d="M44,52.25q-4.22-3.31-4.51-9.89,0-1.29,0-4.27t0-4.37q.24-6.24,4.56-9.48T55.64,21a24,24,0,0,1,8.64,1.44A13.58,13.58,0,0,1,70,26.33a8.75,8.75,0,0,1,2.11,5.38,1.07,1.07,0,0,1-1.06,1.06H60.49a1.7,1.7,0,0,1-1.39-.53,6.92,6.92,0,0,0-.43-.6,3.21,3.21,0,0,0-1.18-.89,4.19,4.19,0,0,0-1.85-.38q-3.55,0-3.7,3.6,0,1.3,0,4t0,4.13q.15,4.08,3.89,4.08a4.88,4.88,0,0,0,3-.82,3,3,0,0,0,1.08-2.59v0H57.66a1.31,1.31,0,0,1-1.3-1.3V36.12a1.31,1.31,0,0,1,1.3-1.3h13.2a1.31,1.31,0,0,1,1.3,1.3v6.24a12.22,12.22,0,0,1-2.09,7.2A12.76,12.76,0,0,1,64.26,54a22.74,22.74,0,0,1-8.62,1.51Q48.2,55.56,44,52.25Z"/></svg>